# 3ds Max Wavefront OBJ Exporter v0.97b - (c)2007 guruware
# File Created: 18.05.2019 01:28:19

mtllib CrateHi_4_1.mtl

#
# object Box001
#

v  -0.3333 0.3333 0.1330
v  -1.0000 0.3333 0.1330
v  -1.0000 0.6584 0.1330
v  -0.3333 1.0000 0.1330
v  -0.6584 1.0000 0.1330
v  -0.3333 1.0000 0.4622
v  0.3333 1.0000 0.4622
v  0.3333 0.3333 0.4622
v  -0.3333 0.3333 0.4622
v  0.6584 1.0000 0.1330
v  1.0000 0.6584 0.1330
v  1.0000 0.3333 0.1330
v  0.3333 1.0000 0.1330
v  0.3333 0.3333 0.1330
v  1.0000 0.3333 0.4622
v  1.0000 0.0000 0.4622
v  -0.0000 0.0000 0.4622
v  -1.0000 0.0000 0.4622
v  -1.0000 0.3333 0.4622
v  0.0000 1.0000 2.7317
v  0.3333 1.0000 2.7317
v  0.3333 1.0000 1.0000
v  -0.3333 1.0000 2.7317
v  -0.3333 1.0000 1.0000
v  1.0000 0.3333 1.0000
v  1.0000 0.3333 2.5948
v  1.0000 0.0000 2.5948
v  -0.6584 1.0000 0.7999
v  -1.0000 0.6584 0.7999
v  -1.0000 0.3333 1.0000
v  -1.0000 0.3333 2.7317
v  1.0000 0.6584 0.7999
v  0.6584 1.0000 0.7999
v  1.0000 0.3333 2.7317
v  -0.2951 0.9076 2.7317
v  0.2951 0.9076 2.7317
v  -0.9076 0.2951 2.7317
v  -1.0000 0.0000 2.7317
v  -0.9076 0.0000 2.7317
v  0.8688 0.3333 2.7317
v  -0.2951 0.9076 1.2053
v  0.2951 0.9076 1.2053
v  -0.9076 0.2951 1.2053
v  -0.9076 0.0000 1.2053
v  0.8688 0.3333 2.5948
v  0.8688 0.3333 1.2053
v  0.9076 0.2951 1.2053
v  0.9076 0.0000 1.2053
v  0.9076 0.0000 2.5948
v  0.9076 0.2951 2.5948
# 50 vertices

vn 0.0000 0.0000 -1.0000
vn 0.0000 1.0000 0.0000
vn 1.0000 0.0000 0.0000
vn -0.4643 0.4643 0.7542
vn -0.7071 0.7071 0.0000
vn 0.4643 0.4643 0.7542
vn 0.7071 0.7071 0.0000
vn -1.0000 0.0000 0.0000
vn 0.0000 -1.0000 0.0000
vn 0.0000 0.0000 1.0000
vn 0.7071 -0.7071 0.0000
vn -0.7074 -0.7068 0.0000
vn -0.7074 -0.7068 -0.0000
vn -0.7020 -0.7122 0.0000
vn -0.7020 -0.7122 -0.0000
vn 0.0000 0.0000 0.0000
# 16 vertex normals

vt 0.9600 0.4455 0.0000
vt 0.8819 0.4455 0.0000
vt 0.8819 0.4836 0.0000
vt 0.9600 0.5236 0.0000
vt 0.9220 0.5236 0.0000
vt 0.6537 0.2270 0.0000
vt 0.5756 0.2270 0.0000
vt 0.5756 0.3052 0.0000
vt 0.6537 0.3052 0.0000
vt 0.0981 0.7032 0.0000
vt 0.0581 0.6632 0.0000
vt 0.0200 0.6632 0.0000
vt 0.0981 0.7413 0.0000
vt 0.0200 0.7413 0.0000
vt 0.4975 0.3052 0.0000
vt 0.4975 0.3442 0.0000
vt 0.6147 0.3442 0.0000
vt 0.7319 0.3442 0.0000
vt 0.7319 0.3052 0.0000
vt 0.3245 0.0971 0.0000
vt 0.3245 0.0581 0.0000
vt 0.1216 0.0581 0.0000
vt 0.3245 0.1362 0.0000
vt 0.1216 0.1362 0.0000
vt 0.0586 0.1362 0.0000
vt 0.0586 0.0581 0.0000
vt 0.4788 0.0591 0.0000
vt 0.6657 0.0591 0.0000
vt 0.6657 0.0200 0.0000
vt 0.4158 0.0200 0.0000
vt 0.4158 0.0591 0.0000
vt 0.1304 0.8226 0.0000
vt 0.1041 0.7952 0.0000
vt 0.0475 0.7941 0.0000
vt 0.0200 0.8205 0.0000
vt 0.3360 0.5236 0.0000
vt 0.5389 0.5236 0.0000
vt 0.5389 0.4455 0.0000
vt 0.3360 0.4455 0.0000
vt 0.8373 0.7692 0.0000
vt 0.8109 0.7418 0.0000
vt 0.7543 0.7406 0.0000
vt 0.7269 0.7670 0.0000
vt 0.4788 0.1372 0.0000
vt 0.6817 0.0591 0.0000
vt 0.6817 0.1372 0.0000
vt 0.2344 0.4855 0.0000
vt 0.2344 0.5236 0.0000
vt 0.2730 0.5236 0.0000
vt 0.3126 0.4855 0.0000
vt 0.8819 0.5368 0.0000
vt 0.8819 0.5753 0.0000
vt 0.9600 0.5753 0.0000
vt 0.9600 0.5368 0.0000
vt 0.6551 0.8280 0.0000
vt 0.6551 0.8666 0.0000
vt 0.7333 0.8666 0.0000
vt 0.7333 0.8280 0.0000
vt 0.0200 0.1362 0.0000
vt 0.0200 0.1743 0.0000
vt 0.0981 0.1743 0.0000
vt 0.3126 0.4455 0.0000
vt 0.2344 0.4455 0.0000
vt 0.5113 0.9015 0.0000
vt 0.5113 0.9401 0.0000
vt 0.5894 0.9401 0.0000
vt 0.5894 0.9015 0.0000
vt 0.8769 0.7406 0.0000
vt 0.8769 0.7792 0.0000
vt 0.9550 0.7792 0.0000
vt 0.9550 0.7406 0.0000
vt 0.3773 0.0591 0.0000
vt 0.3773 0.0971 0.0000
vt 0.4554 0.0971 0.0000
vt 0.3773 0.1372 0.0000
vt 0.4554 0.1372 0.0000
vt 0.0200 0.0200 0.0000
vt 0.0200 0.0581 0.0000
vt 0.0981 0.0200 0.0000
vt 0.6908 0.4455 0.0000
vt 0.6931 0.4570 0.0000
vt 0.7610 0.4702 0.0000
vt 0.7291 0.4529 0.0000
vt 0.7674 0.4604 0.0000
vt 0.6089 0.5137 0.0000
vt 0.5992 0.5072 0.0000
vt 0.5917 0.5455 0.0000
vt 0.6023 0.5476 0.0000
vt 0.8141 0.5491 0.0000
vt 0.8292 0.5520 0.0000
vt 0.3062 0.4059 0.0000
vt 0.3754 0.4059 0.0000
vt 0.3754 0.2270 0.0000
vt 0.3062 0.2270 0.0000
vt 0.2344 0.9236 0.0000
vt 0.4133 0.9236 0.0000
vt 0.4133 0.8891 0.0000
vt 0.2344 0.8891 0.0000
vt 0.2344 0.4059 0.0000
vt 0.2344 0.2270 0.0000
vt 0.4426 0.2270 0.0000
vt 0.4426 0.2431 0.0000
vt 0.4426 0.4059 0.0000
vt 0.5113 0.7406 0.0000
vt 0.5113 0.7752 0.0000
vt 0.6741 0.7752 0.0000
vt 0.6741 0.7406 0.0000
vt 0.4471 0.4059 0.0000
vt 0.4471 0.2431 0.0000
vt 0.9672 0.3709 0.0000
vt 0.9282 0.3709 0.0000
vt 0.9327 0.3817 0.0000
vt 0.9672 0.3817 0.0000
vt 0.9282 0.3863 0.0000
vt 0.4579 0.2270 0.0000
vt 0.4579 0.2431 0.0000
vt 0.2730 0.5626 0.0000
vt 0.5389 0.5626 0.0000
# 118 texture coords

g Box001
usemtl wire_113135006
s 1
f 1/1/1 2/2/1 3/3/1 
f 4/4/1 1/1/1 3/3/1 
f 5/5/1 4/4/1 3/3/1 
f 6/6/1 7/7/1 8/8/1 
f 8/8/1 9/9/1 6/6/1 
f 10/10/1 11/11/1 12/12/1 
f 13/13/1 10/10/1 12/12/1 
f 13/13/1 12/12/1 14/14/1 
f 8/8/1 15/15/1 16/16/1 
f 9/9/1 8/8/1 16/16/1 
f 9/9/1 16/16/1 17/17/1 
f 9/9/1 17/17/1 18/18/1 
f 19/19/1 9/9/1 18/18/1 
s 2
f 20/20/2 21/21/2 22/22/2 
f 23/23/2 20/20/2 22/22/2 
f 24/24/2 23/23/2 22/22/2 
f 6/25/2 24/24/2 22/22/2 
f 6/25/2 22/22/2 7/26/2 
f 25/27/3 26/28/3 27/29/3 
f 25/27/3 27/29/3 16/30/3 
f 15/31/3 25/27/3 16/30/3 
s off
f 24/32/4 28/33/4 29/34/4 
f 29/34/4 30/35/4 24/32/4 
f 30/36/5 31/37/5 23/38/5 
f 23/38/5 24/39/5 30/36/5 
f 25/40/6 32/41/6 33/42/6 
f 33/42/6 22/43/6 25/40/6 
f 26/28/7 25/27/7 22/44/7 
f 34/45/7 26/28/7 22/44/7 
f 21/46/7 34/45/7 22/44/7 
s 2
f 3/47/8 2/48/8 19/49/8 
f 29/50/8 3/47/8 19/49/8 
f 29/50/8 19/49/8 30/36/8 
s off
f 19/51/9 2/52/9 1/53/9 
f 1/53/9 9/54/9 19/51/9 
f 9/55/3 1/56/3 4/57/3 
f 4/57/3 6/58/3 9/55/3 
s 2
f 6/25/2 4/59/2 5/60/2 
f 5/60/2 28/61/2 24/24/2 
f 6/25/2 5/60/2 24/24/2 
s 4
f 28/62/5 5/63/5 3/47/5 
f 3/47/5 29/50/5 28/62/5 
s off
f 7/64/8 13/65/8 14/66/8 
f 14/66/8 8/67/8 7/64/8 
f 8/68/9 14/69/9 12/70/9 
f 12/70/9 15/71/9 8/68/9 
s 2
f 15/31/3 12/72/3 11/73/3 
f 11/73/3 32/74/3 25/27/3 
f 15/31/3 11/73/3 25/27/3 
s 4
f 32/74/7 11/73/7 10/75/7 
f 10/75/7 33/76/7 32/74/7 
s 2
f 10/77/2 13/78/2 7/26/2 
f 33/79/2 10/77/2 7/26/2 
f 33/79/2 7/26/2 22/22/2 
s off
f 23/80/10 35/81/10 36/82/10 
f 20/83/10 23/80/10 36/82/10 
f 21/84/10 20/83/10 36/82/10 
f 37/85/10 31/86/10 38/87/10 
f 38/87/10 39/88/10 37/85/10 
f 35/81/10 23/80/10 31/86/10 
f 31/86/10 37/85/10 35/81/10 
f 40/89/10 34/90/10 21/84/10 
f 21/84/10 36/82/10 40/89/10 
f 41/91/9 42/92/9 36/93/9 
f 36/93/9 35/94/9 41/91/9 
f 43/95/3 37/96/3 39/97/3 
f 39/97/3 44/98/3 43/95/3 
f 43/99/11 41/91/11 35/94/11 
f 35/94/11 37/100/11 43/99/11 
f 40/101/12 36/93/12 42/92/12 
f 45/102/13 40/101/13 42/92/13 
f 46/103/13 45/102/13 42/92/13 
f 47/104/8 48/105/8 49/106/8 
f 49/106/8 50/107/8 47/104/8 
f 47/108/14 50/109/14 45/102/14 
f 45/102/15 46/103/15 47/108/15 
f 27/110/10 26/111/10 50/112/10 
f 50/112/10 49/113/10 27/110/10 
f 26/111/10 45/114/10 50/112/10 
f 50/112/16 50/112/16 26/111/16 
f 34/115/9 40/101/9 45/102/9 
f 45/102/9 26/116/9 34/115/9 
s 2
f 19/49/8 18/117/8 38/118/8 
f 38/118/8 31/37/8 30/36/8 
f 19/49/8 38/118/8 30/36/8 
# 85 faces

#
# object Object001
#

v  -0.3333 1.0000 2.9352
v  -0.6584 1.0000 2.6898
v  -1.0000 0.6584 2.6898
v  -1.0000 0.3333 2.9352
v  -0.3333 1.0000 1.6319
v  -0.6584 1.0000 1.6319
v  -1.0000 0.6584 1.6319
v  -1.0000 0.3333 1.6319
# 8 vertices

vn -0.5161 0.5161 0.6835
vn 0.0000 1.0000 0.0000
vn -1.0000 0.0000 0.0000
vn -0.7071 0.7071 0.0000
vn 0.0000 0.0000 -1.0000
# 5 vertex normals

vt 0.1727 0.5196 0.0000
vt 0.1440 0.5196 0.0000
vt 0.1440 0.4796 0.0000
vt 0.1727 0.4415 0.0000
vt 0.0200 0.6104 0.0000
vt 0.0200 0.5724 0.0000
vt 0.1440 0.5724 0.0000
vt 0.1727 0.6104 0.0000
vt 0.0200 0.4796 0.0000
vt 0.0200 0.4415 0.0000
vt 0.0200 0.5196 0.0000
vt 0.8884 0.6154 0.0000
vt 0.9450 0.6165 0.0000
vt 0.9714 0.6440 0.0000
vt 0.8609 0.6418 0.0000
# 15 texture coords

g Object001
usemtl wire_113135006
s 1
f 51/119/17 52/120/17 53/121/17 
f 53/121/17 54/122/17 51/119/17 
s 2
f 55/123/18 56/124/18 52/125/18 
f 52/125/18 51/126/18 55/123/18 
f 57/127/19 58/128/19 54/122/19 
f 54/122/19 53/121/19 57/127/19 
s 4
f 56/129/20 57/127/20 53/121/20 
f 53/121/20 52/120/20 56/129/20 
s off
f 57/130/21 56/131/21 55/132/21 
f 55/132/21 58/133/21 57/130/21 
# 10 faces

#
# object Object002
#

v  -0.6102 1.0000 0.0397
v  -1.2769 1.0000 0.0397
v  -1.2769 1.0000 0.3080
v  -0.6102 1.0000 0.3080
v  -1.9436 0.0000 0.0397
v  -1.9436 0.0000 0.3080
v  -1.9436 0.3333 0.3080
v  -1.9436 0.3333 0.0397
v  0.0564 0.3333 0.3080
v  0.0564 0.3333 0.0397
v  -1.2313 0.8900 0.0397
v  -1.8336 0.2878 0.0397
v  -0.6558 0.8900 0.0397
v  -0.0536 0.3333 0.0397
v  -1.2313 0.8900 0.2397
v  -1.8336 0.2878 0.2397
v  -0.6558 0.8900 0.2397
v  -0.0536 0.2878 0.2397
v  0.0564 0.0000 0.3080
v  -0.0536 0.0000 0.2397
v  -1.8336 0.0000 0.2397
v  -1.8336 0.0000 0.0397
v  0.0564 0.0000 -0.0503
v  -0.0536 0.0000 -0.0503
v  -0.0536 0.3333 -0.0503
v  0.0564 0.3333 -0.0503
v  -0.0536 0.0000 0.0397
v  0.0564 0.0000 0.0397
# 28 vertices

vn 0.0000 1.0000 0.0000
vn -1.0000 0.0000 0.0000
vn 0.7071 0.7071 0.0000
vn 0.7071 0.7071 -0.0000
vn -0.7071 0.7071 0.0000
vn -0.7071 0.7071 -0.0000
vn 0.0000 0.0000 -1.0000
vn 0.0000 0.0000 0.0000
vn 0.7071 -0.7071 0.0000
vn 0.0000 -1.0000 0.0000
vn -0.6695 -0.7243 -0.1650
vn -0.7071 -0.7071 0.0000
vn 0.0000 0.0000 1.0000
vn 1.0000 0.0000 0.0000
vn -0.0000 1.0000 0.0000
# 15 vertex normals

vt 0.7333 0.9376 0.0000
vt 0.6551 0.9376 0.0000
vt 0.6551 0.9061 0.0000
vt 0.7333 0.9061 0.0000
vt 0.7714 0.4023 0.0000
vt 0.7714 0.3709 0.0000
vt 0.8105 0.3709 0.0000
vt 0.8105 0.4023 0.0000
vt 0.7042 0.6154 0.0000
vt 0.7823 0.6154 0.0000
vt 0.7823 0.6468 0.0000
vt 0.7042 0.6468 0.0000
vt 0.8886 0.3709 0.0000
vt 0.8886 0.4023 0.0000
vt 0.2389 0.6840 0.0000
vt 0.3256 0.6154 0.0000
vt 0.3294 0.6288 0.0000
vt 0.2511 0.6908 0.0000
vt 0.4032 0.6244 0.0000
vt 0.3964 0.6366 0.0000
vt 0.4717 0.7110 0.0000
vt 0.4711 0.7163 0.0000
vt 0.4583 0.7149 0.0000
vt 0.0906 0.8988 0.0000
vt 0.0200 0.8988 0.0000
vt 0.0200 0.8754 0.0000
vt 0.0906 0.8754 0.0000
vt 0.8403 0.9159 0.0000
vt 0.7728 0.9159 0.0000
vt 0.7728 0.8925 0.0000
vt 0.8403 0.8925 0.0000
vt 0.6156 0.8514 0.0000
vt 0.5450 0.8514 0.0000
vt 0.5450 0.8280 0.0000
vt 0.6156 0.8280 0.0000
vt 0.7345 0.0981 0.0000
vt 0.8126 0.0200 0.0000
vt 0.8907 0.0200 0.0000
vt 0.9689 0.0981 0.0000
vt 0.9689 0.1372 0.0000
vt 0.7345 0.1372 0.0000
vt 0.9800 0.2608 0.0000
vt 0.9094 0.3313 0.0000
vt 0.8420 0.3313 0.0000
vt 0.7714 0.2608 0.0000
vt 0.7714 0.2270 0.0000
vt 0.9800 0.2270 0.0000
vt 0.2344 0.7228 0.0000
vt 0.2472 0.7243 0.0000
vt 0.1243 0.8754 0.0000
vt 0.1243 0.8988 0.0000
vt 0.8065 0.9555 0.0000
vt 0.8065 0.9684 0.0000
vt 0.7728 0.9684 0.0000
vt 0.7728 0.9555 0.0000
vt 0.5113 0.8514 0.0000
vt 0.5113 0.8280 0.0000
vt 0.5450 0.8620 0.0000
vt 0.5113 0.8620 0.0000
vt 0.4975 0.3838 0.0000
vt 0.5104 0.3838 0.0000
vt 0.5104 0.3943 0.0000
vt 0.4975 0.3943 0.0000
vt 0.8213 0.6154 0.0000
vt 0.7876 0.6468 0.0000
vt 0.8213 0.6468 0.0000
vt 0.8213 0.6574 0.0000
vt 0.7876 0.6574 0.0000
# 68 texture coords

g Object002
usemtl wire_113135006
s 2
f 59/134/22 60/135/22 61/136/22 
f 61/136/22 62/137/22 59/134/22 
f 63/138/23 64/139/23 65/140/23 
f 65/140/23 66/141/23 63/138/23 
s off
f 62/142/24 67/143/24 68/144/24 
f 68/144/25 59/145/25 62/142/25 
f 65/140/26 61/146/26 60/147/26 
f 60/147/27 66/141/27 65/140/27 
f 66/148/28 60/149/28 69/150/28 
f 69/150/28 70/151/28 66/148/28 
f 60/149/28 59/152/28 71/153/28 
f 71/153/28 69/150/28 60/149/28 
f 68/154/29 68/155/29 72/156/29 
f 59/152/28 68/154/28 72/156/28 
f 59/152/28 72/156/28 71/153/28 
f 70/157/30 69/158/30 73/159/30 
f 73/159/30 74/160/30 70/157/30 
f 69/161/31 71/162/31 75/163/31 
f 75/163/31 73/164/31 69/161/31 
f 71/165/32 72/166/32 76/167/32 
f 76/167/33 75/168/33 71/165/33 
s 1
f 67/169/34 62/170/34 61/171/34 
f 61/171/34 65/172/34 64/173/34 
f 67/169/34 61/171/34 64/173/34 
f 77/174/34 67/169/34 64/173/34 
s off
f 74/175/28 73/176/28 75/177/28 
f 75/177/28 76/178/28 78/179/28 
f 74/175/28 75/177/28 78/179/28 
f 79/180/28 74/175/28 78/179/28 
f 63/181/28 66/148/28 70/151/28 
f 70/151/28 80/182/28 63/181/28 
f 70/157/35 74/160/35 79/183/35 
f 79/183/35 80/184/35 70/157/35 
f 81/185/28 82/186/28 83/187/28 
f 83/187/28 84/188/28 81/185/28 
f 85/189/23 78/190/23 76/167/23 
f 85/189/23 76/167/23 72/166/23 
f 85/189/23 72/166/23 83/191/23 
f 85/189/23 83/191/23 82/192/23 
f 72/193/36 68/194/36 84/195/36 
f 84/195/36 83/196/36 72/193/36 
s 2
f 68/144/35 67/143/35 77/197/35 
f 68/198/35 68/144/35 77/197/35 
f 68/198/35 77/197/35 86/199/35 
f 68/198/35 86/199/35 81/200/35 
f 68/198/35 81/200/35 84/201/35 
# 46 faces

#
# object Object003
#

v  0.9076 -0.2951 1.2551
v  0.9076 0.2951 1.2551
v  0.2951 0.9076 1.2551
v  -0.2951 0.9076 1.2551
v  -0.9076 0.2951 1.2551
v  -0.9076 -0.2951 1.2551
v  -0.2951 -0.9076 1.2551
v  0.2951 -0.9076 1.2551
# 8 vertices

vn 0.0000 0.0000 1.0000
# 1 vertex normals

vt 0.0679 0.4263 0.0000
vt 0.0200 0.3765 0.0000
vt 0.0220 0.2750 0.0000
vt 0.0718 0.2270 0.0000
vt 0.1733 0.2290 0.0000
vt 0.2212 0.2789 0.0000
vt 0.2193 0.3804 0.0000
vt 0.1694 0.4283 0.0000
# 8 texture coords

g Object003
usemtl wire_113135006
s off
f 87/202/37 88/203/37 89/204/37 
f 89/204/37 90/205/37 91/206/37 
f 91/206/37 92/207/37 93/208/37 
f 89/204/37 91/206/37 93/208/37 
f 87/202/37 89/204/37 93/208/37 
f 94/209/37 87/202/37 93/208/37 
# 6 faces

#
# object Object005
#

v  -0.3093 1.0933 -0.0226
v  -0.3093 1.0933 1.1731
v  0.3093 1.0933 1.1731
v  0.3093 1.0933 -0.0226
v  -0.3093 0.9933 -0.0226
v  -0.3093 0.9933 1.1731
v  0.3093 0.9933 1.1731
v  0.3093 0.9933 -0.0226
# 8 vertices

vn -0.0000 1.0000 0.0000
vn -1.0000 -0.0000 -0.0000
vn 0.0000 0.0000 1.0000
vn 1.0000 0.0000 -0.0000
vn 0.0000 0.0000 -1.0000
vn 0.0000 -1.0000 0.0000
# 6 vertex normals

vt 0.2344 0.7638 0.0000
vt 0.3745 0.7638 0.0000
vt 0.3745 0.8363 0.0000
vt 0.2344 0.8363 0.0000
vt 0.0200 0.9501 0.0000
vt 0.0200 0.9384 0.0000
vt 0.1601 0.9384 0.0000
vt 0.1601 0.9501 0.0000
vt 0.9523 0.9042 0.0000
vt 0.8798 0.9042 0.0000
vt 0.8798 0.8925 0.0000
vt 0.9523 0.8925 0.0000
vt 0.9129 0.8397 0.0000
vt 0.7728 0.8397 0.0000
vt 0.7728 0.8280 0.0000
vt 0.9129 0.8280 0.0000
vt 0.9523 0.9687 0.0000
vt 0.8798 0.9687 0.0000
vt 0.8798 0.9569 0.0000
vt 0.9523 0.9569 0.0000
vt 0.5113 0.6154 0.0000
vt 0.6514 0.6154 0.0000
vt 0.6514 0.6879 0.0000
vt 0.5113 0.6879 0.0000
# 24 texture coords

g Object005
usemtl wire_113135006
s 2
f 95/210/38 96/211/38 97/212/38 
f 97/212/38 98/213/38 95/210/38 
s off
f 95/214/39 99/215/39 100/216/39 
f 100/216/39 96/217/39 95/214/39 
f 97/218/40 96/219/40 100/220/40 
f 100/220/40 101/221/40 97/218/40 
f 101/222/41 102/223/41 98/224/41 
f 98/224/41 97/225/41 101/222/41 
f 95/226/42 98/227/42 102/228/42 
f 102/228/42 99/229/42 95/226/42 
f 102/230/43 101/231/43 100/232/43 
f 100/232/43 99/233/43 102/230/43 
# 12 faces

