# 3ds Max Wavefront OBJ Exporter v0.97b - (c)2007 guruware
# File Created: 19.05.2019 22:43:12

mtllib CrateHiTech_2.mtl

#
# object Box001
#

v  1.5000 1.0000 0.5000
v  0.0000 1.0000 0.5000
v  0.0000 1.0000 0.6562
v  1.2468 1.0000 0.6562
v  1.5000 1.0000 0.6562
v  1.5000 0.5000 0.0000
v  2.0000 0.5000 0.5000
v  1.5000 1.0000 1.5000
v  1.5000 0.5000 2.0000
v  2.0000 0.5000 1.5000
v  2.0000 0.0000 0.5000
v  1.5000 0.0000 0.0000
v  1.2468 1.0000 1.5000
v  1.2468 0.5000 2.0000
v  0.0000 0.0000 0.0000
v  0.0000 0.5000 0.0000
v  1.2468 0.9000 1.4586
v  1.2468 0.4586 1.9000
v  1.2468 0.9000 0.6562
v  -0.0000 0.9000 0.6562
v  1.5000 0.9000 1.4586
v  1.5000 0.4586 1.9000
v  1.5000 0.9000 0.6562
v  -0.0000 0.9000 0.4368
v  1.5000 0.9000 0.4368
v  -0.0000 0.0000 0.4368
v  1.5000 0.0000 0.4368
v  2.0000 0.0000 1.5000
v  1.5000 0.0000 2.0000
v  1.2468 0.0000 2.0000
v  1.5000 0.0000 1.4586
v  1.5000 0.0000 1.9000
v  1.2468 0.0000 1.9000
# 33 vertices

vn 0.0000 1.0000 0.0000
vn 0.5774 0.5774 -0.5774
vn 0.5774 0.5774 0.5774
vn 0.7071 0.0000 -0.7071
vn 0.0000 0.7071 0.7071
vn 0.7071 0.7071 0.0000
vn 0.0000 0.0000 -1.0000
vn 0.0000 0.7071 -0.7071
vn -1.0000 0.0000 0.0000
vn 0.0000 0.0000 1.0000
vn 0.0000 -0.7071 -0.7071
vn 0.0000 -1.0000 0.0000
vn 1.0000 0.0000 0.0000
vn 0.7071 0.0000 0.7071
# 14 vertex normals

vt 0.4654 0.1941 0.0000
vt 0.4654 0.0200 0.0000
vt 0.4835 0.0200 0.0000
vt 0.4835 0.1647 0.0000
vt 0.4835 0.1941 0.0000
vt 0.4073 0.3261 0.0000
vt 0.4654 0.2681 0.0000
vt 0.4654 0.3261 0.0000
vt 0.5815 0.2681 0.0000
vt 0.6395 0.3261 0.0000
vt 0.5815 0.3261 0.0000
vt 0.4654 0.3841 0.0000
vt 0.4073 0.3841 0.0000
vt 0.5815 0.1941 0.0000
vt 0.5815 0.1647 0.0000
vt 0.6395 0.1647 0.0000
vt 0.6395 0.1941 0.0000
vt 0.4835 0.2681 0.0000
vt 0.0200 0.9800 0.0000
vt 0.0200 0.9220 0.0000
vt 0.1941 0.9220 0.0000
vt 0.1941 0.9800 0.0000
vt 0.4073 0.1941 0.0000
vt 0.4073 0.0200 0.0000
vt 0.7377 0.5270 0.0000
vt 0.8190 0.5161 0.0000
vt 0.8158 0.5283 0.0000
vt 0.7440 0.5379 0.0000
vt 0.8969 0.5755 0.0000
vt 0.8899 0.5848 0.0000
vt 0.6917 0.2169 0.0000
vt 0.8364 0.2169 0.0000
vt 0.8364 0.2285 0.0000
vt 0.6917 0.2285 0.0000
vt 0.0494 0.5161 0.0000
vt 0.0494 0.5674 0.0000
vt 0.0200 0.5674 0.0000
vt 0.0200 0.5161 0.0000
vt 0.0494 0.6605 0.0000
vt 0.0200 0.6605 0.0000
vt 0.1941 0.6605 0.0000
vt 0.1941 0.6860 0.0000
vt 0.0200 0.6860 0.0000
vt 0.4073 0.6206 0.0000
vt 0.2332 0.6206 0.0000
vt 0.2332 0.5161 0.0000
vt 0.4073 0.5161 0.0000
vt 0.5815 0.3841 0.0000
vt 0.6395 0.3841 0.0000
vt 0.9443 0.6408 0.0000
vt 0.9443 0.6701 0.0000
vt 0.8862 0.6701 0.0000
vt 0.8862 0.6408 0.0000
vt 0.8615 0.3213 0.0000
vt 0.8103 0.3725 0.0000
vt 0.8103 0.2681 0.0000
vt 0.8615 0.2681 0.0000
vt 0.7025 0.5732 0.0000
vt 0.7117 0.5802 0.0000
vt 0.7171 0.3725 0.0000
vt 0.6917 0.3725 0.0000
vt 0.6917 0.2681 0.0000
vt 0.9114 0.0494 0.0000
vt 0.9114 0.0200 0.0000
vt 0.9646 0.0200 0.0000
vt 0.9646 0.0494 0.0000
# 66 texture coords

g Box001
usemtl wire_088088225
s 1
f 1/1/1 2/2/1 3/3/1 
f 1/1/1 3/3/1 4/4/1 
f 1/1/1 4/4/1 5/5/1 
s 2
f 6/6/2 1/7/2 7/8/2 
f 8/9/3 9/10/3 10/11/3 
s 4
f 7/8/4 11/12/4 12/13/4 
f 12/13/4 6/6/4 7/8/4 
f 8/14/5 13/15/5 14/16/5 
f 14/16/5 9/17/5 8/14/5 
s 16
f 5/18/6 8/9/6 10/11/6 
f 1/7/6 5/18/6 10/11/6 
f 7/8/6 1/7/6 10/11/6 
s 1
f 8/14/1 5/5/1 4/4/1 
f 4/4/1 13/15/1 8/14/1 
f 6/19/7 12/20/7 15/21/7 
f 15/21/7 16/22/7 6/19/7 
s 8
f 1/1/8 6/23/8 16/24/8 
f 16/24/8 2/2/8 1/1/8 
s off
f 14/25/9 13/26/9 17/27/9 
f 17/27/9 18/28/9 14/25/9 
f 13/26/9 4/29/9 19/30/9 
f 19/30/9 17/27/9 13/26/9 
f 4/31/10 3/32/10 20/33/10 
f 20/33/10 19/34/10 4/31/10 
f 18/35/11 17/36/11 21/37/11 
f 21/37/11 22/38/11 18/35/11 
f 17/36/12 19/39/12 23/40/12 
f 23/40/12 21/37/12 17/36/12 
f 19/39/12 20/41/12 24/42/12 
f 19/39/12 24/42/12 25/43/12 
f 19/39/12 25/43/12 23/40/12 
s 2
f 26/44/10 27/45/10 25/46/10 
f 25/46/10 24/47/10 26/44/10 
s 1
f 7/8/13 10/11/13 28/48/13 
f 28/48/13 11/12/13 7/8/13 
s 8
f 10/11/14 9/10/14 29/49/14 
f 29/49/14 28/48/14 10/11/14 
s 1
f 9/50/10 14/51/10 30/52/10 
f 30/52/10 29/53/10 9/50/10 
s 2
f 22/54/9 21/55/9 31/56/9 
f 31/56/9 32/57/9 22/54/9 
s off
f 30/58/9 14/25/9 18/28/9 
f 18/28/9 33/59/9 30/58/9 
s 8
f 31/56/9 21/55/9 23/60/9 
f 31/56/9 23/60/9 25/61/9 
f 31/56/9 25/61/9 27/62/9 
s off
f 18/63/7 22/64/7 32/65/7 
f 32/65/7 33/66/7 18/63/7 
# 48 faces

#
# object Object001
#

v  1.2468 1.0000 1.6000
v  1.2468 1.0000 0.6562
v  0.0000 1.0000 0.6562
v  0.0000 1.0000 1.6000
v  1.2468 0.5000 2.1000
v  0.0000 0.5000 2.1000
v  0.0000 -0.0000 2.1000
v  1.2468 -0.0000 2.1000
v  1.2468 0.9000 0.6562
v  1.2468 0.8973 1.6000
v  0.0000 0.9000 0.6562
v  0.0000 0.9076 1.6000
v  0.0000 0.5000 2.0000
v  1.2468 0.5000 2.0000
v  1.2468 -0.0000 2.0000
v  0.0000 -0.0000 2.0000
# 16 vertices

vn 0.0000 1.0000 0.0000
vn 0.0000 0.0000 1.0000
vn 1.0000 0.0000 0.0000
vn 0.0000 0.0000 -1.0000
vn -1.0000 0.0000 0.0000
vn 0.0000 -1.0000 0.0000
vn -0.0083 -0.9999 0.0081
vn 0.0000 -1.0000 -0.0029
vn -0.0059 -0.7095 -0.7047
vn 0.0000 -0.7004 -0.7137
vn 0.0000 0.7071 0.7071
# 11 vertex normals

vt 0.8012 0.1647 0.0000
vt 0.6917 0.1647 0.0000
vt 0.6917 0.0200 0.0000
vt 0.8012 0.0200 0.0000
vt 0.7024 0.6408 0.0000
vt 0.8471 0.6408 0.0000
vt 0.8471 0.6988 0.0000
vt 0.7024 0.6988 0.0000
vt 0.4531 0.5886 0.0000
vt 0.4465 0.5791 0.0000
vt 0.5361 0.5161 0.0000
vt 0.5429 0.5259 0.0000
vt 0.7750 0.8158 0.0000
vt 0.7750 0.8274 0.0000
vt 0.6303 0.8274 0.0000
vt 0.6303 0.8158 0.0000
vt 0.4465 0.6533 0.0000
vt 0.4528 0.6436 0.0000
vt 0.5442 0.7039 0.0000
vt 0.5384 0.7129 0.0000
vt 0.6089 0.6895 0.0000
vt 0.6187 0.6958 0.0000
vt 0.6169 0.5302 0.0000
vt 0.6075 0.5369 0.0000
vt 0.6503 0.5777 0.0000
vt 0.6408 0.5844 0.0000
vt 0.6405 0.6408 0.0000
vt 0.6502 0.6471 0.0000
vt 0.5912 0.8622 0.0000
vt 0.5912 0.8738 0.0000
vt 0.4465 0.8738 0.0000
vt 0.4465 0.8622 0.0000
vt 0.1295 0.7251 0.0000
vt 0.1295 0.8698 0.0000
vt 0.0200 0.8698 0.0000
vt 0.0200 0.7251 0.0000
vt 0.1760 0.7251 0.0000
vt 0.1760 0.8698 0.0000
vt 0.4465 0.7651 0.0000
vt 0.5912 0.7651 0.0000
vt 0.5912 0.8231 0.0000
vt 0.4465 0.8231 0.0000
vt 0.8592 0.0200 0.0000
vt 0.8592 0.1647 0.0000
# 44 texture coords

g Object001
usemtl wire_088088225
s 1
f 34/67/15 35/68/15 36/69/15 
f 36/69/15 37/70/15 34/67/15 
f 38/71/16 39/72/16 40/73/16 
f 40/73/16 41/74/16 38/71/16 
s off
f 42/75/17 35/76/17 34/77/17 
f 34/77/17 43/78/17 42/75/17 
f 44/79/18 36/80/18 35/81/18 
f 35/81/18 42/82/18 44/79/18 
f 36/83/19 44/84/19 45/85/19 
f 45/85/19 37/86/19 36/83/19 
f 46/87/19 39/88/19 37/86/19 
f 37/86/19 45/85/19 46/87/19 
f 38/89/17 47/90/17 43/78/17 
f 43/78/17 34/77/17 38/89/17 
f 47/90/17 38/89/17 41/91/17 
f 41/91/17 48/92/17 47/90/17 
f 49/93/19 40/94/19 39/88/19 
f 39/88/19 46/87/19 49/93/19 
f 40/95/20 49/96/20 48/97/20 
f 48/97/20 41/98/20 40/95/20 
f 43/99/21 45/100/21 44/101/21 
f 44/101/22 42/102/22 43/99/22 
f 45/100/23 43/99/23 47/103/23 
f 47/103/24 46/104/24 45/100/24 
f 48/105/18 49/106/18 46/107/18 
f 46/107/18 47/108/18 48/105/18 
f 37/70/25 39/109/25 38/110/25 
f 38/110/25 34/67/25 37/70/25 
# 28 faces

#
# object Object002
#

v  -1.5000 -1.8000 -0.1000
v  -1.5000 0.0000 -0.0000
v  1.5000 0.0000 -0.0000
v  1.5000 -1.8000 -0.1000
v  -1.5000 -1.8000 -0.0000
v  1.5000 -1.8000 -0.0000
# 6 vertices

vn 0.0000 0.0555 -0.9985
vn 0.0000 0.0000 1.0000
vn 0.0000 -1.0000 0.0000
vn 1.0000 0.0000 0.0000
vn -1.0000 0.0000 0.0000
# 5 vertex normals

vt 0.3682 0.2681 0.0000
vt 0.3682 0.4770 0.0000
vt 0.0200 0.4770 0.0000
vt 0.0200 0.2681 0.0000
vt 0.3682 0.2289 0.0000
vt 0.0200 0.2289 0.0000
vt 0.0200 0.0200 0.0000
vt 0.3682 0.0200 0.0000
vt 0.9785 0.7767 0.0000
vt 0.6303 0.7767 0.0000
vt 0.6303 0.7651 0.0000
vt 0.9785 0.7651 0.0000
vt 0.6163 0.4479 0.0000
vt 0.4073 0.4363 0.0000
vt 0.6163 0.4363 0.0000
vt 0.9006 0.4247 0.0000
vt 0.6917 0.4363 0.0000
vt 0.6917 0.4247 0.0000
# 18 texture coords

g Object002
usemtl wire_088088225
s 2
f 50/111/26 51/112/26 52/113/26 
f 52/113/26 53/114/26 50/111/26 
s 4
f 54/115/27 55/116/27 52/117/27 
f 52/117/27 51/118/27 54/115/27 
s 8
f 50/119/28 53/120/28 55/121/28 
f 55/121/28 54/122/28 50/119/28 
s 16
f 53/123/29 52/124/29 55/125/29 
s 64
f 51/126/30 50/127/30 54/128/30 
# 8 faces

#
# object Object003
#

v  -0.5354 1.0354 1.7060
v  -0.5354 0.6060 2.1354
v  0.5354 0.6060 2.1354
v  0.5354 1.0354 1.7060
v  -0.6234 0.5000 2.1000
v  0.6234 0.5000 2.1000
v  0.6234 1.0000 1.6000
v  -0.6234 1.0000 1.6000
# 8 vertices

vn 0.0000 0.7071 0.7071
vn 0.0000 -0.3167 0.9485
vn 0.7505 0.4673 0.4673
vn 0.0000 0.9485 -0.3167
vn -0.7505 0.4673 0.4673
# 5 vertex normals

vt 0.2435 0.7095 0.0000
vt 0.2435 0.6597 0.0000
vt 0.3677 0.6597 0.0000
vt 0.3677 0.7095 0.0000
vt 0.3780 0.7733 0.0000
vt 0.2332 0.7733 0.0000
vt 0.2435 0.7610 0.0000
vt 0.3677 0.7610 0.0000
vt 0.2332 0.8124 0.0000
vt 0.3153 0.8140 0.0000
vt 0.3093 0.8255 0.0000
vt 0.2388 0.8241 0.0000
vt 0.3780 0.7218 0.0000
vt 0.2332 0.7218 0.0000
vt 0.4465 0.9129 0.0000
vt 0.5285 0.9145 0.0000
vt 0.5225 0.9260 0.0000
vt 0.4520 0.9247 0.0000
# 18 texture coords

g Object003
usemtl wire_088088225
s 4
f 56/129/31 57/130/31 58/131/31 
f 58/131/31 59/132/31 56/129/31 
s off
f 60/133/32 61/134/32 58/135/32 
f 58/135/32 57/136/32 60/133/32 
f 61/137/33 62/138/33 59/139/33 
f 59/139/33 58/140/33 61/137/33 
f 62/141/34 63/142/34 56/129/34 
f 56/129/34 59/132/34 62/141/34 
f 63/143/35 60/144/35 57/145/35 
f 57/145/35 56/146/35 63/143/35 
# 10 faces

