# 3ds Max Wavefront OBJ Exporter v0.97b - (c)2007 guruware
# File Created: 18.05.2019 21:50:50

mtllib CrateHiTech_1.mtl

#
# object Box001
#

v  -1.4680 1.1500 -0.1500
v  -1.4680 -1.1500 -0.1500
v  -2.1500 -1.1500 -0.1500
v  -2.1500 1.1500 -0.1500
v  -1.4680 1.0000 0.0000
v  0.0000 1.0000 0.0000
v  0.0000 -1.0000 0.0000
v  -1.4680 -1.0000 0.0000
v  -0.9359 -1.0000 1.0000
v  -0.9359 1.0000 1.0000
v  -2.0000 1.0000 1.0000
v  -2.0000 -1.0000 1.0000
v  -1.4680 -1.0000 0.1756
v  -0.9359 -1.0000 0.1756
v  -2.0000 -1.0000 0.1756
v  -1.4680 1.0000 0.1756
v  -2.0000 1.0000 0.1756
v  -0.9359 1.0000 0.1756
v  -0.9359 1.0000 0.8312
v  0.0000 -1.0000 0.1756
v  -1.4680 -1.1500 0.0000
v  -2.1500 -1.1500 0.0000
v  -1.4680 1.1500 0.0000
v  -2.1500 1.1500 0.0000
v  -0.9359 0.9000 0.9293
v  -0.9359 -0.9000 0.9293
v  -0.9359 -0.9000 0.1756
v  -0.9359 0.9000 0.8312
v  -0.0000 0.9000 0.8312
v  -0.0000 1.0000 0.8312
v  0.0000 -0.9000 0.1756
v  -0.0000 -0.9000 0.0814
v  -0.9359 -0.9000 0.0814
v  -0.0000 1.0000 0.1756
v  -0.9359 0.9000 0.0814
v  -0.0000 0.9000 0.0814
# 36 vertices

vn 0.0000 0.0000 -1.0000
vn 0.0000 0.0000 1.0000
vn 0.0000 -1.0000 0.0000
vn 0.0000 1.0000 0.0000
vn -1.0000 0.0000 0.0000
vn 1.0000 0.0000 -0.0000
vn 0.0000 -0.7604 0.6494
vn -0.4510 -0.4510 0.7702
vn -0.6582 -0.6582 0.3654
vn 0.0000 -0.9382 0.3461
vn -0.4510 0.4510 0.7702
vn 0.0000 0.7604 0.6494
vn 0.0000 0.9382 0.3461
vn -0.6582 0.6582 0.3654
vn 1.0000 0.0000 0.0000
vn -0.7071 -0.7071 0.0000
vn -0.7071 0.7071 0.0000
vn 1.0000 -0.0000 0.0000
vn -0.0000 0.7071 0.7071
vn 0.5774 0.5774 0.5773
vn 0.8944 0.4472 -0.0000
vn 0.8944 -0.4472 0.0000
vn 0.5774 -0.5774 0.5774
vn -0.0000 -0.7071 0.7071
# 24 vertex normals

vt 0.7308 0.4369 0.0000
vt 0.9472 0.4369 0.0000
vt 0.9472 0.5011 0.0000
vt 0.7308 0.5011 0.0000
vt 0.2346 0.3856 0.0000
vt 0.2346 0.2475 0.0000
vt 0.4228 0.2475 0.0000
vt 0.4228 0.3856 0.0000
vt 0.7291 0.0200 0.0000
vt 0.9173 0.0200 0.0000
vt 0.9173 0.1201 0.0000
vt 0.7291 0.1201 0.0000
vt 0.6123 0.3250 0.0000
vt 0.5622 0.3250 0.0000
vt 0.5622 0.2475 0.0000
vt 0.6623 0.3250 0.0000
vt 0.6623 0.2475 0.0000
vt 0.2988 0.5145 0.0000
vt 0.2487 0.5145 0.0000
vt 0.2487 0.4369 0.0000
vt 0.3489 0.5145 0.0000
vt 0.3489 0.4369 0.0000
vt 0.3489 0.4528 0.0000
vt 0.6765 0.0976 0.0000
vt 0.4883 0.0976 0.0000
vt 0.4883 0.0200 0.0000
vt 0.6765 0.0200 0.0000
vt 0.6123 0.3416 0.0000
vt 0.4742 0.3416 0.0000
vt 0.4742 0.3250 0.0000
vt 0.6765 0.1832 0.0000
vt 0.6765 0.1667 0.0000
vt 0.6906 0.1832 0.0000
vt 0.6765 0.3416 0.0000
vt 0.2988 0.5310 0.0000
vt 0.2346 0.5310 0.0000
vt 0.4883 0.1667 0.0000
vt 0.4883 0.1832 0.0000
vt 0.4742 0.1832 0.0000
vt 0.6906 0.1141 0.0000
vt 0.4742 0.1141 0.0000
vt 0.6765 0.3557 0.0000
vt 0.6123 0.3557 0.0000
vt 0.6906 0.1282 0.0000
vt 0.4742 0.1282 0.0000
vt 0.2988 0.5451 0.0000
vt 0.2346 0.5451 0.0000
vt 0.6906 0.1974 0.0000
vt 0.4742 0.1974 0.0000
vt 0.2440 0.7456 0.0000
vt 0.2346 0.7390 0.0000
vt 0.4228 0.7390 0.0000
vt 0.4134 0.7456 0.0000
vt 0.4228 0.8166 0.0000
vt 0.4134 0.8166 0.0000
vt 0.9425 0.5931 0.0000
vt 0.8545 0.5931 0.0000
vt 0.8545 0.5837 0.0000
vt 0.9425 0.5837 0.0000
vt 0.2440 0.7549 0.0000
vt 0.2346 0.7549 0.0000
vt 0.6743 0.9499 0.0000
vt 0.6743 0.9587 0.0000
vt 0.5863 0.9587 0.0000
vt 0.5863 0.9499 0.0000
vt 0.4369 0.4528 0.0000
vt 0.4369 0.5145 0.0000
vt 0.4369 0.5310 0.0000
vt 0.8890 0.8540 0.0000
vt 0.8890 0.8634 0.0000
vt 0.8009 0.8634 0.0000
vt 0.8009 0.8540 0.0000
vt 0.1081 0.7634 0.0000
vt 0.1081 0.8339 0.0000
vt 0.0200 0.8339 0.0000
vt 0.0200 0.7634 0.0000
vt 0.2431 0.5837 0.0000
vt 0.4117 0.6000 0.0000
vt 0.4032 0.6876 0.0000
vt 0.2346 0.6713 0.0000
vt 0.2440 0.8254 0.0000
vt 0.4134 0.8254 0.0000
# 82 texture coords

g Box001
usemtl wire_225143087
s 2
f 1/1/1 2/2/1 3/3/1 
f 3/3/1 4/4/1 1/1/1 
f 5/5/1 6/6/1 7/7/1 
f 7/7/1 8/8/1 5/5/1 
s 4
f 9/9/2 10/10/2 11/11/2 
f 11/11/2 12/12/2 9/9/2 
s 8
f 13/13/3 14/14/3 9/15/3 
f 15/16/3 13/13/3 9/15/3 
f 15/16/3 9/15/3 12/17/3 
s 32
f 16/18/4 17/19/4 11/20/4 
f 18/21/4 16/18/4 11/20/4 
f 11/20/4 10/22/4 19/23/4 
f 18/21/4 11/20/4 19/23/4 
s 64
f 17/24/5 15/25/5 12/26/5 
f 12/26/5 11/27/5 17/24/5 
s 8
f 8/28/3 7/29/3 20/30/3 
f 8/28/3 20/30/3 14/14/3 
f 8/28/3 14/14/3 13/13/3 
s off
f 8/31/6 13/32/6 21/33/6 
s 1
f 13/13/7 15/16/8 22/34/9 
f 22/34/9 21/28/10 13/13/7 
f 17/19/11 16/18/12 23/35/13 
f 23/35/13 24/36/14 17/19/11 
s off
f 16/37/15 5/38/15 23/39/15 
s 1
f 15/25/8 17/24/11 24/40/14 
f 24/40/14 22/41/9 15/25/8 
f 21/28/10 22/34/9 3/42/16 
f 3/42/16 2/43/3 21/28/10 
f 22/41/9 24/40/14 4/44/17 
f 4/44/17 3/45/16 22/41/9 
f 24/36/14 23/35/13 1/46/4 
f 1/46/4 4/47/17 24/36/14 
s off
f 8/31/15 21/33/15 2/48/15 
f 5/38/15 8/31/15 2/48/15 
f 5/38/6 2/48/6 1/49/6 
f 23/39/15 5/38/15 1/49/15 
f 25/50/15 10/51/15 9/52/15 
f 9/52/15 26/53/15 25/50/15 
f 14/54/15 27/55/15 26/53/15 
f 26/53/15 9/52/15 14/54/15 
f 28/56/2 29/57/2 30/58/2 
f 30/58/2 19/59/2 28/56/2 
f 10/51/18 25/50/18 28/60/18 
f 28/60/6 19/61/6 10/51/6 
s 1
f 31/62/4 32/63/19 33/64/20 
f 33/64/20 27/65/21 31/62/4 
s 32
f 18/21/4 19/23/4 30/66/4 
f 30/66/4 34/67/4 18/21/4 
f 6/68/4 5/35/4 16/18/4 
f 6/68/4 16/18/4 18/21/4 
f 6/68/4 18/21/4 34/67/4 
s off
f 27/69/2 14/70/2 20/71/2 
f 20/71/2 31/72/2 27/69/2 
s 1
f 28/73/22 35/74/23 36/75/24 
f 36/75/24 29/76/3 28/73/22 
f 35/77/23 33/78/20 32/79/19 
f 32/79/19 36/80/24 35/77/23 
f 35/81/23 28/60/22 27/55/21 
f 27/55/21 33/82/20 35/81/23 
f 26/53/18 27/55/21 28/60/22 
f 28/60/22 25/50/15 26/53/18 
# 61 faces

#
# object Object001
#

v  -0.9359 -0.0432 -0.0559
v  0.9359 -0.0432 -0.0559
v  0.9359 -0.0432 0.5997
v  -0.9359 -0.0432 0.5997
v  -0.9359 0.0568 -0.0559
v  0.9359 0.0568 -0.0559
v  0.9359 0.0568 0.5997
v  -0.9359 0.0568 0.5997
# 8 vertices

vn 0.0000 -1.0000 0.0000
vn 0.0000 0.0000 -1.0000
vn 1.0000 0.0000 0.0000
vn 0.0000 0.0000 1.0000
vn -1.0000 0.0000 0.0000
vn 0.0000 1.0000 0.0000
# 6 vertex normals

vt 0.1961 0.7249 0.0000
vt 0.0200 0.7249 0.0000
vt 0.0200 0.6632 0.0000
vt 0.1961 0.6632 0.0000
vt 0.1961 0.8725 0.0000
vt 0.1961 0.8819 0.0000
vt 0.0200 0.8819 0.0000
vt 0.0200 0.8725 0.0000
vt 0.5247 0.8307 0.0000
vt 0.4630 0.8307 0.0000
vt 0.4630 0.8213 0.0000
vt 0.5247 0.8213 0.0000
vt 0.7624 0.8155 0.0000
vt 0.5863 0.8155 0.0000
vt 0.5863 0.8061 0.0000
vt 0.7624 0.8061 0.0000
vt 0.8545 0.6316 0.0000
vt 0.9162 0.6316 0.0000
vt 0.9162 0.6410 0.0000
vt 0.8545 0.6410 0.0000
vt 0.4108 0.8639 0.0000
vt 0.4108 0.9256 0.0000
vt 0.2346 0.9256 0.0000
vt 0.2346 0.8639 0.0000
# 24 texture coords

g Object001
usemtl wire_225143087
s 8
f 37/83/25 38/84/25 39/85/25 
f 39/85/25 40/86/25 37/83/25 
s off
f 37/87/26 41/88/26 42/89/26 
f 42/89/26 38/90/26 37/87/26 
f 39/91/27 38/92/27 42/93/27 
f 42/93/27 43/94/27 39/91/27 
f 40/95/28 39/96/28 43/97/28 
f 43/97/28 44/98/28 40/95/28 
f 37/99/29 40/100/29 44/101/29 
f 44/101/29 41/102/29 37/99/29 
s 1
f 43/103/30 42/104/30 41/105/30 
f 41/105/30 44/106/30 43/103/30 
# 12 faces

#
# object Object002
#

v  -0.9359 -1.9498 0.1189
v  0.9359 -1.9498 0.1189
v  0.9359 0.0502 0.1189
v  -0.9359 0.0502 0.1189
v  -0.9359 -1.9498 -0.0500
v  0.9359 -1.9498 -0.0500
v  0.9359 0.0502 -0.0500
v  -0.9359 0.0502 -0.0500
v  -0.9359 -1.8498 -0.0500
v  0.9359 -1.8498 -0.0500
v  0.9359 -0.0498 -0.0500
v  -0.9359 -0.0498 -0.0500
v  0.9359 -1.8498 0.0500
v  -0.9359 -1.8498 0.0500
v  -0.9359 -0.0498 0.0500
v  0.9359 -0.0498 0.0500
# 16 vertices

vn 0.0000 0.0000 1.0000
vn 0.0000 -1.0000 0.0000
vn 0.0000 1.0000 0.0000
vn 0.0000 0.0000 -1.0000
vn 0.0000 0.7071 -0.7071
vn 0.0000 -0.7071 -0.7071
vn -1.0000 -0.0000 0.0000
vn -1.0000 0.0000 0.0000
vn 1.0000 0.0000 0.0000
vn 1.0000 0.0000 -0.0000
vn 1.0000 -0.0000 -0.0000
# 11 vertex normals

vt 0.0200 0.1961 0.0000
vt 0.0200 0.0200 0.0000
vt 0.2082 0.0200 0.0000
vt 0.2082 0.1961 0.0000
vt 0.5863 0.7038 0.0000
vt 0.7624 0.7038 0.0000
vt 0.7624 0.7197 0.0000
vt 0.5863 0.7197 0.0000
vt 0.2346 0.9641 0.0000
vt 0.4108 0.9641 0.0000
vt 0.4108 0.9800 0.0000
vt 0.2346 0.9800 0.0000
vt 0.1961 0.9298 0.0000
vt 0.0200 0.9298 0.0000
vt 0.0200 0.9204 0.0000
vt 0.1961 0.9204 0.0000
vt 0.5863 0.7582 0.0000
vt 0.7624 0.7582 0.0000
vt 0.7624 0.7676 0.0000
vt 0.5863 0.7676 0.0000
vt 0.7624 0.8540 0.0000
vt 0.7624 0.8634 0.0000
vt 0.5863 0.8634 0.0000
vt 0.5863 0.8540 0.0000
vt 0.9770 0.7038 0.0000
vt 0.9770 0.7132 0.0000
vt 0.8009 0.7132 0.0000
vt 0.8009 0.7038 0.0000
vt 0.0200 0.6247 0.0000
vt 0.0200 0.4553 0.0000
vt 0.1961 0.4553 0.0000
vt 0.1961 0.6247 0.0000
vt 0.9173 0.1715 0.0000
vt 0.9078 0.1779 0.0000
vt 0.7385 0.1779 0.0000
vt 0.7291 0.1715 0.0000
vt 0.9173 0.1874 0.0000
vt 0.9078 0.1874 0.0000
vt 0.7291 0.1874 0.0000
vt 0.7385 0.1874 0.0000
vt 0.9031 0.3650 0.0000
vt 0.8937 0.3715 0.0000
vt 0.7244 0.3715 0.0000
vt 0.7150 0.3650 0.0000
vt 0.9031 0.3809 0.0000
vt 0.8937 0.3809 0.0000
vt 0.7150 0.3809 0.0000
vt 0.7244 0.3809 0.0000
# 48 texture coords

g Object002
usemtl wire_225143087
s 4
f 45/107/31 46/108/31 47/109/31 
f 47/109/31 48/110/31 45/107/31 
s 8
f 46/111/32 45/112/32 49/113/32 
f 49/113/32 50/114/32 46/111/32 
s 32
f 48/115/33 47/116/33 51/117/33 
f 51/117/33 52/118/33 48/115/33 
s off
f 53/119/34 54/120/34 50/121/34 
f 50/121/34 49/122/34 53/119/34 
f 55/123/34 56/124/34 52/125/34 
f 52/125/34 51/126/34 55/123/34 
s 1
f 57/127/35 54/128/33 53/129/33 
f 53/129/33 58/130/35 57/127/35 
f 59/131/36 56/132/32 55/133/32 
f 55/133/32 60/134/36 59/131/36 
f 60/135/36 57/136/35 58/137/35 
f 58/137/35 59/138/36 60/135/36 
s off
f 48/139/37 59/140/37 58/141/37 
f 58/141/38 45/142/38 48/139/38 
f 52/143/38 56/144/38 59/140/38 
f 59/140/38 48/139/38 52/143/38 
f 49/145/38 45/142/38 58/141/38 
f 58/141/38 53/146/38 49/145/38 
f 46/147/39 57/148/39 60/149/39 
f 60/149/40 47/150/40 46/147/40 
f 50/151/39 54/152/39 57/148/39 
f 57/148/39 46/147/39 50/151/39 
f 51/153/41 47/150/41 60/149/41 
f 60/149/39 55/154/39 51/153/39 
# 28 faces

#
# object Object003
#

v  -1.8335 -1.1525 1.1000
v  -1.1025 -1.1525 1.1000
v  -1.1025 1.1525 1.1000
v  -1.8335 1.1525 1.1000
v  -1.8335 -1.1525 0.4603
v  -1.1025 -1.1525 0.4603
v  -1.1025 1.1525 0.4603
v  -1.8335 1.1525 0.4603
v  -1.0179 -1.0000 1.0000
v  -1.0179 1.0000 1.0000
v  -1.0179 1.0000 0.2603
v  -1.9181 1.0000 0.2603
v  -1.9181 1.0000 1.0000
v  -1.9181 -1.0000 1.0000
v  -1.9181 -1.0000 0.2603
v  -1.0179 -1.0000 0.2603
# 16 vertices

vn -0.4490 -0.6396 0.6239
vn 0.4490 -0.6396 0.6239
vn 0.4490 0.6396 0.6239
vn -0.4490 0.6396 0.6239
vn -0.4336 -0.8699 -0.2350
vn 0.4336 -0.8699 -0.2350
vn 0.4336 0.8699 -0.2350
vn -0.4336 0.8699 -0.2350
vn 0.8918 -0.2455 0.3801
vn 0.8918 0.2455 0.3801
vn 0.3777 0.8064 -0.4551
vn -0.3777 0.8064 -0.4551
vn -0.8918 0.2455 0.3801
vn -0.8918 -0.2455 0.3801
vn -0.3777 -0.8064 -0.4551
vn 0.3777 -0.8064 -0.4551
# 16 vertex normals

vt 0.4630 0.6524 0.0000
vt 0.4630 0.5837 0.0000
vt 0.6799 0.5837 0.0000
vt 0.6799 0.6524 0.0000
vt 0.5398 0.7640 0.0000
vt 0.4710 0.7640 0.0000
vt 0.4710 0.7038 0.0000
vt 0.5398 0.7038 0.0000
vt 0.8080 0.6438 0.0000
vt 0.7392 0.6438 0.0000
vt 0.7392 0.5837 0.0000
vt 0.8080 0.5837 0.0000
vt 0.6780 0.4463 0.0000
vt 0.4898 0.4463 0.0000
vt 0.4754 0.4369 0.0000
vt 0.6923 0.4369 0.0000
vt 0.4898 0.5159 0.0000
vt 0.4754 0.4971 0.0000
vt 0.8160 0.6627 0.0000
vt 0.7313 0.6627 0.0000
vt 0.9175 0.3265 0.0000
vt 0.9175 0.2569 0.0000
vt 0.9318 0.2475 0.0000
vt 0.9318 0.3077 0.0000
vt 0.7293 0.2569 0.0000
vt 0.7150 0.2475 0.0000
vt 0.7293 0.3265 0.0000
vt 0.7150 0.3077 0.0000
vt 0.5477 0.7828 0.0000
vt 0.4630 0.7828 0.0000
vt 0.6780 0.5159 0.0000
vt 0.6923 0.4971 0.0000
# 32 texture coords

g Object003
usemtl wire_225143087
s 1
f 61/155/42 62/156/43 63/157/44 
f 63/157/44 64/158/45 61/155/42 
f 65/159/46 66/160/47 62/161/43 
f 62/161/43 61/162/42 65/159/46 
f 67/163/48 68/164/49 64/165/45 
f 64/165/45 63/166/44 67/163/48 
f 69/167/50 70/168/51 63/169/44 
f 63/169/44 62/170/43 69/167/50 
f 70/168/51 71/171/52 67/172/48 
f 67/172/48 63/169/44 70/168/51 
f 71/173/52 72/174/53 68/164/49 
f 68/164/49 67/163/48 71/173/52 
f 72/175/53 73/176/54 64/177/45 
f 64/177/45 68/178/49 72/175/53 
f 73/176/54 74/179/55 61/180/42 
f 61/180/42 64/177/45 73/176/54 
f 74/179/55 75/181/56 65/182/46 
f 65/182/46 61/180/42 74/179/55 
f 75/183/56 76/184/57 66/160/47 
f 66/160/47 65/159/46 75/183/56 
f 76/185/57 69/167/50 62/170/43 
f 62/170/43 66/186/47 76/185/57 
# 22 faces

#
# object Object004
#

v  0.9359 0.9000 0.1756
v  0.9359 -0.9000 0.1756
v  -0.9359 -0.9000 0.1756
v  -0.9359 0.9000 0.1756
v  -0.9359 0.9000 0.2756
v  0.9359 0.9000 0.2756
v  0.9359 -0.9000 0.2756
v  -0.9359 -0.9000 0.2756
# 8 vertices

vn 0.0000 0.0000 -1.0000
vn 0.0000 1.0000 0.0000
vn 1.0000 0.0000 0.0000
vn 0.0000 -1.0000 0.0000
vn -1.0000 -0.0000 0.0000
vn 0.0000 0.0000 1.0000
# 6 vertex normals

vt 0.0200 0.4168 0.0000
vt 0.0200 0.2475 0.0000
vt 0.1961 0.2475 0.0000
vt 0.1961 0.4168 0.0000
vt 0.0200 0.9777 0.0000
vt 0.0200 0.9683 0.0000
vt 0.1961 0.9683 0.0000
vt 0.1961 0.9777 0.0000
vt 0.9703 0.8155 0.0000
vt 0.8009 0.8155 0.0000
vt 0.8009 0.8061 0.0000
vt 0.9703 0.8061 0.0000
vt 0.9770 0.7676 0.0000
vt 0.8009 0.7676 0.0000
vt 0.8009 0.7582 0.0000
vt 0.9770 0.7582 0.0000
vt 0.7556 0.9113 0.0000
vt 0.5863 0.9113 0.0000
vt 0.5863 0.9019 0.0000
vt 0.7556 0.9019 0.0000
vt 0.4357 0.1894 0.0000
vt 0.2595 0.1894 0.0000
vt 0.2595 0.0200 0.0000
vt 0.4357 0.0200 0.0000
# 24 texture coords

g Object004
usemtl wire_225143087
s 1
f 77/187/58 78/188/58 79/189/58 
f 79/189/58 80/190/58 77/187/58 
s off
f 80/191/59 81/192/59 82/193/59 
f 82/193/59 77/194/59 80/191/59 
f 78/195/60 77/196/60 82/197/60 
f 82/197/60 83/198/60 78/195/60 
f 79/199/61 78/200/61 83/201/61 
f 83/201/61 84/202/61 79/199/61 
f 80/203/62 79/204/62 84/205/62 
f 84/205/62 81/206/62 80/203/62 
f 84/207/63 83/208/63 82/209/63 
f 82/209/63 81/210/63 84/207/63 
# 12 faces

